<?xml version="1.0" encoding="utf-8"?>
<!-- Generator: Adobe Illustrator 24.1.2, SVG Export Plug-In . SVG Version: 6.00 Build 0)  -->
<svg version="1.1" id="Слой_1" xmlns="http://www.w3.org/2000/svg" xmlns:xlink="http://www.w3.org/1999/xlink" x="0px" y="0px"
	 viewBox="0 0 640 420" style="enable-background:new 0 0 640 420;" xml:space="preserve">
<style type="text/css">
	.st0{fill:#F0CF90;}
	.st1{display:none;fill:#F0CF90;}
	.st2{fill:none;stroke:#F0CF90;stroke-width:5;stroke-miterlimit:10;}
	.st3{fill:none;stroke:#F0CF90;stroke-width:8;stroke-miterlimit:10;}
</style>
<rect x="-16.8" y="-25" width="684" height="464"/>
<g transform="matrix(0.7,0,0,0.7,149.57575903453687,405.7308926149867)">
	<g id="tight-bounds" transform="matrix(1,0,0,1,0.23999917474770882,-0.13071698308772284)">
		<g>
			<g transform="matrix(1,0,0,1,84.41697964377731,17.98807404333312)">
				<g>
					<g>
						<g transform="matrix(1,0,0,1,0,0)">
							<path id="text-0" class="st0" d="M89-119.7h25l1-9.5l-3-0.5l-3.6,6.5l-8.5-0.3v-22.9l4.4-1.8l0.3-2.8H89.3l-0.4,2.8l4.3,1.9
								v22.3l-3.9,1.6L89-119.7z M117.2-148l4.4,1.4v22.6l-4.1,1.6l-0.2,2.7h14.9l0.3-3l-4.3-1.2v-22.6l4.1-1.3l0.3-3h-15.1
								L117.2-148z M149-119.7c3,0,5.5-0.4,7.4-1.2c2-0.8,3.4-1.9,4.4-3.4c1-1.4,1.4-3.1,1.4-4.9l0,0c0-1.2-0.3-2.3-0.8-3.4
								c-0.5-1.1-1.3-2-2.4-2.7c-1-0.7-2.4-1.2-3.9-1.2l0,0v-0.2c1-0.4,1.9-0.9,2.6-1.7c0.7-0.8,1.3-1.6,1.7-2.5s0.6-1.9,0.6-2.8
								l0,0c0-1.4-0.4-2.6-1.2-3.7c-0.8-1.1-2.1-2.1-3.7-2.7c-1.7-0.7-3.9-1-6.7-1l0,0c-3.3,0-7.6,0.4-12.9,1.2l0,0l-0.3,3l4.1,0.9
								v22.2l-3.9,1.6l-0.3,2.6L149-119.7L149-119.7z M146.1-147.8c0.6-0.1,1.1-0.1,1.6-0.1l0,0c2.1,0,3.6,0.5,4.5,1.6
								c0.9,1,1.4,2.4,1.4,4l0,0c0,1.2-0.2,2.1-0.6,2.9s-1,1.5-1.7,2l0,0H146L146.1-147.8L146.1-147.8z M146.1-134.3h3.6
								c1.2,0,2.2,0.3,3.1,0.8c0.8,0.5,1.6,1.2,2,2.1c0.5,0.9,0.7,1.9,0.7,2.9l0,0c0,1-0.2,1.9-0.6,2.6s-1.1,1.4-1.9,1.9
								c-0.8,0.5-1.7,0.6-2.8,0.6l0,0h-3.9v-11H146.1z M164.3-148.1l4.4,1.4v22.8l-3.9,1.6l-0.3,2.6h26.3l0.7-9.1l-3-0.4l-2.9,5.7
								h-10.2v-10.3h5.2l0.8,4.3l3.3-0.6l0.8-10.7l-3.4,0.6l-1,3.2h-5.6v-10.7h9.7l1.5,5.5l3.1,0.5l0.7-9.2h-25.8L164.3-148.1z
								 M208.7-119.7l0.3-3l-3.9-1.5v-8h3l3,5.7c1.2,2.3,2.5,4.1,4.1,5.4c1.6,1.3,3.4,1.9,5.7,1.9l0,0c1.5,0,2.8-0.2,4-0.6l0,0
								l0.5-2.5l-0.8-0.3c-1-0.3-1.9-0.7-2.7-1.3c-0.8-0.6-1.5-1.2-2.1-2c-0.6-0.8-1.4-1.9-2.5-3.3l0,0l-3.6-5.2
								c1.2-0.5,2.3-1.1,3.3-2c1-0.9,1.8-1.9,2.5-3.1c0.6-1.2,0.9-2.4,0.9-3.6l0,0c0-3-1.1-5-3.3-6.3c-2.2-1.3-5.4-1.9-9.7-1.9l0,0
								c-1.7,0-3.7,0.1-6.3,0.4s-4.8,0.5-6.7,0.8l0,0l-0.3,3l4.3,1v22l-4.2,1.6l-0.4,2.6C193.6-119.7,208.7-119.7,208.7-119.7z
								 M205-147.7c0.1,0,0.3,0,0.6-0.1c0.3,0,0.8,0,1.2,0l0,0c1.2,0,2.3,0.3,3.3,0.8c0.9,0.5,1.6,1.3,2.1,2.2c0.5,1,0.7,2,0.7,3.2
								l0,0c0,1.4-0.3,2.6-1,3.5c-0.7,0.9-1.6,1.7-2.8,2.2l0,0H205V-147.7z M239.5-119.7h12.7l0.3-2.8l-4.5-1.7l1.7-5.3h9.6l1.7,5.2
								l-4,2l-0.3,2.6h14.7l0.3-2.8l-3.4-1.7l-9.3-27.3l-5.9,1.2l-9.9,26l-3.7,2L239.5-119.7z M251.2-133.4l3.7-10.9l3.5,10.9H251.2
								z M290.6-119.7l0.5-3l-5.7-1.5v-23.3c0.2-0.1,0.5-0.1,0.9-0.1c0.4-0.1,0.8-0.1,1.1-0.1l0,0c2,0,3.6,0.6,4.6,1.9
								s1.6,2.8,1.6,4.8l0,0c0,1.9-0.5,3.4-1.6,4.5c-1.1,1.1-2.7,1.6-4.8,1.7l0,0h-0.8l0.6,3.2c1,0.1,1.7,0.1,2.1,0.1l0,0
								c2.1,0,4.1-0.5,5.8-1.4c1.7-0.9,3.1-2.2,4.1-3.8c1-1.6,1.5-3.4,1.5-5.4l0,0c0-3.4-1-5.9-3.2-7.2c-2.1-1.4-5.1-2.1-8.9-2.1
								l0,0c-2.3,0-4.5,0.1-6.5,0.3s-4.3,0.5-6.8,0.9l0,0l-0.3,3l4.3,0.9v22.2l-4.2,1.6l-0.4,2.6h16.3V-119.7z M318.7-119.7l0.5-3
								l-5.7-1.5v-23.3c0.2-0.1,0.5-0.1,0.9-0.1c0.4-0.1,0.8-0.1,1.1-0.1l0,0c2,0,3.6,0.6,4.6,1.9c1,1.2,1.6,2.8,1.6,4.8l0,0
								c0,1.9-0.5,3.4-1.6,4.5c-1.1,1.1-2.6,1.6-4.8,1.7l0,0h-0.8l0.6,3.2c1,0.1,1.7,0.1,2.1,0.1l0,0c2.1,0,4.1-0.5,5.8-1.4
								c1.7-0.9,3.1-2.2,4.1-3.8c1-1.6,1.5-3.4,1.5-5.4l0,0c0-3.4-1-5.9-3.2-7.2c-2.1-1.4-5.1-2.1-8.9-2.1l0,0
								c-2.3,0-4.5,0.1-6.5,0.3s-4.3,0.5-6.8,0.9l0,0l-0.3,3l4.3,0.9v22.2l-4.2,1.6l-0.4,2.6h16.3V-119.7z"/>
						</g>
					</g>
					<g transform="matrix(1,0,0,1,0,62.786885570059596)">
						<g transform="matrix(1,0,0,1,0,0)">
							<path id="text-1" class="st0" d="M95.9-154.2c-2.9,0-5.2-0.8-7-2.5l0,0l0.8-1.7c0.9,0.8,1.9,1.4,2.8,1.7
								c1,0.3,2.1,0.5,3.4,0.5l0,0c1.5,0,2.6-0.3,3.4-0.9c0.8-0.6,1.2-1.5,1.2-2.6l0,0c0-0.6-0.2-1.2-0.6-1.6
								c-0.4-0.4-0.9-0.7-1.6-1s-1.5-0.5-2.6-0.8l0,0c-1.4-0.3-2.6-0.7-3.6-1.1c-0.9-0.4-1.7-1-2.3-1.7s-0.8-1.7-0.8-2.8l0,0
								c0-1.1,0.3-2.1,0.8-3c0.6-0.8,1.4-1.6,2.4-2c1-0.5,2.2-0.7,3.6-0.7l0,0c1.3,0,2.5,0.2,3.6,0.6c1.1,0.5,2.1,1,2.8,1.8l0,0
								l-0.8,1.7c-0.9-0.8-1.7-1.4-2.6-1.7c-0.9-0.4-1.9-0.5-3-0.5l0,0c-1.4,0-2.6,0.3-3.4,1c-0.8,0.6-1.2,1.6-1.2,2.7l0,0
								c0,1,0.4,1.7,1.1,2.2c0.7,0.5,1.8,0.9,3.3,1.3l0,0c1.6,0.4,2.8,0.8,3.7,1.1c0.9,0.3,1.7,0.8,2.3,1.6s0.9,1.6,0.9,2.8l0,0
								c0,1.1-0.3,2.1-0.8,2.9s-1.4,1.5-2.4,1.9S97.3-154.2,95.9-154.2L95.9-154.2z M112.5-154.4h-2.2v-17.6h-6.5v-1.9H119v1.9h-6.5
								V-154.4z M128.9-154.2c-2.5,0-4.3-0.6-5.5-2c-1.2-1.4-1.9-3.3-1.9-5.9l0,0V-174h2.1v12.1c0,1.9,0.5,3.4,1.4,4.3
								c0.9,1,2.2,1.4,3.9,1.4l0,0c1.7,0,3-0.5,3.9-1.4c0.9-1,1.3-2.4,1.3-4.3l0,0V-174h2.1v11.9c0,2.6-0.6,4.5-1.9,5.9
								C133.1-154.9,131.3-154.2,128.9-154.2L128.9-154.2z M140.7-154.4V-174h6.3c3,0,5.3,0.8,6.9,2.5c1.6,1.7,2.5,4.1,2.5,7.2l0,0
								c0,3.1-0.8,5.6-2.5,7.2s-3.9,2.6-6.9,2.6l0,0C146.9-154.4,140.7-154.4,140.7-154.4z M142.8-156.4h3.9c4.8,0,7.2-2.6,7.2-7.9
								l0,0c0-5.2-2.4-7.8-7.2-7.8l0,0h-3.9V-156.4z M162.3-154.4h-2.1V-174h2.1V-154.4z M174.7-154.2c-1.7,0-3.2-0.4-4.5-1.2
								s-2.3-2-2.9-3.5c-0.6-1.5-1-3.3-1-5.3l0,0c0-2.1,0.3-3.8,1-5.4c0.7-1.5,1.7-2.6,2.9-3.5c1.3-0.8,2.8-1.2,4.5-1.2l0,0
								c1.7,0,3.2,0.4,4.5,1.2c1.3,0.8,2.3,1.9,2.9,3.5c0.7,1.5,1,3.3,1,5.3l0,0c0,2.1-0.3,3.8-1,5.3c-0.7,1.5-1.7,2.6-3,3.5
								C177.9-154.6,176.4-154.2,174.7-154.2L174.7-154.2z M174.7-156.1c1.9,0,3.5-0.7,4.6-2.1c1.1-1.4,1.7-3.4,1.7-6l0,0
								c0-2.6-0.5-4.6-1.6-5.9c-1.1-1.4-2.6-2.1-4.6-2.1l0,0c-1.9,0-3.5,0.7-4.6,2.1c-1.1,1.4-1.6,3.4-1.6,5.9l0,0
								c0,2.6,0.5,4.6,1.6,5.9C171.2-156.8,172.7-156.1,174.7-156.1L174.7-156.1z"/>
						</g>
					</g>
				</g>
			</g>
			<g>
				<g>
					<g>
						<g>
							<path class="st0" d="M134.7-92.3L134.7-92.3c0.7,0,1.2-0.5,1.3-1.2l0.1-1.5c0.1-0.7-0.5-1.4-1.2-1.4
								c-0.6-0.1-1.3,0.5-1.4,1.2l-0.1,1.5C133.6-93,134-92.4,134.7-92.3z"/>
							<path class="st0" d="M165.3-64.6l-3.4-4.1c0-0.1-0.1-0.1-0.1-0.1l-0.1-0.1l0,0c-0.2-0.2-0.5-0.3-0.8-0.3H155l-1-14.1
								l-0.2-3.5l1.3-0.4c0.6-0.2,1-0.8,0.9-1.4l-0.8-7.8c0.5-3.1,2.1-6,1.9-8.8l3,3.4l-2.5,2.7c-0.5,0.5-0.5,1.4,0,1.8
								c0.5,0.5,1.3,0.5,1.7,0l3.4-3.6c0.5-0.5,0.5-1.3,0-1.8l-4.6-5.2c-0.2-0.3-0.5-0.4-0.8-0.5c-0.3,0-0.6,0.1-0.9,0.3l-2.1,2.1
								l-0.4-3.6c-0.4-4.2-3.1-7.8-6.8-9c0.3-0.6,0.5-1.3,0.5-2.1v-0.6h2.6c0.6,0,1.2-0.6,1.2-1.3s-0.6-1.3-1.2-1.3h-2.6v-0.3
								c0-0.3,0-0.5-0.1-0.8l2.8-3c0.5-0.5,0.5-1.4,0-1.8c-0.5-0.5-1.3-0.5-1.7,0l-2.3,2.5c-0.5-0.5-1-0.8-1.6-1v-3.6
								c0-0.7-0.6-1.3-1.2-1.3c-0.6,0-1.2,0.6-1.2,1.3v3.6c-0.6,0.2-1,0.5-1.5,0.9l-2.3-2.4c-0.5-0.5-1.3-0.5-1.7,0
								c-0.5,0.5-0.5,1.4,0,1.8l2.7,2.8c-0.1,0.3-0.1,0.6-0.1,0.9v0.4c-0.1,0-0.1,0-0.2,0h-3.7c-0.6,0-1.2,0.6-1.2,1.3l-1.2-13.4
								h0.3c0.6,0,1.2-0.6,1.2-1.3c0-0.6-0.4-1.1-0.8-1.2c0-0.3,0.1-0.5,0.1-0.8c0-2.3-1.2-4.5-3.1-5.6c-0.4-0.3-0.8-0.3-1.2,0
								c-1.9,1.2-3.1,3.4-3.1,5.6c0,0.3,0,0.5,0.1,0.8c-0.5,0.2-0.8,0.6-0.8,1.2c0,0.7,0.6,1.3,1.2,1.3h0.6l0.6,20.5l-0.2,0.1
								c-0.4,0.3-0.5,0.9-0.3,1.4c1.8,5.9,3.3,8.1,7,9.9l-0.5,4.8c-0.1,0.7,0.5,1.4,1.2,1.4h0.1c0.6,0,1.2-0.5,1.2-1.2l0.4-5.7
								c0-0.6-0.3-1.1-0.7-1.3c-3.3-1.5-4.5-2.7-6.2-7.9l3.3-3l0.1-0.1c-1,6.7,6.8,3.9,5.2,6.7l-1.4,1.8c-0.4,0.6-0.3,1.4,0.2,1.8
								c0.3,0.2,0.5,0.3,0.8,0.3c0.4,0,0.7-0.2,1-0.5l4.9-6.6l-0.3,5.7c0,0.7,0.5,1.4,1.2,1.4l0,0l0,0l0,0h0.1
								c0.6,0,1.2-0.6,1.2-1.2l0.3-7.8c1,6.7,7.8,10.8,3.6,27.2l-4.9,1.6l0.6-14.7l0.1-1.6c0.2-0.5,0.1-1.1-0.3-1.4
								c-0.3-0.3-0.5-0.3-0.8-0.4c0,0,0,0-0.1,0c-0.5-0.1-1,0.3-1.2,0.7l-3.6,4.1c-0.5,0.5-0.5,1.2,0,1.7l-0.1,0.1h0.1
								c0,0,0,0.1,0.1,0.1c0.3,0.3,0.5,0.4,0.8,0.4c0.1,0,0.1,0,0.2,0c1.6,1,1.9,3.7,1.7,7.4l0.1-0.3l-0.3,5.6l0,0
								c0,0.1,0,0.1,0,0.1c0,0,0,0,0,0.1l0,0c0,0.1,0,0.1,0,0.1l0,0c0,0,0,0,0,0.1s0,0.1,0,0.1l0,0c0,0,0,0,0,0.1s0,0.1,0,0.1
								c0,0,0,0,0,0.1l0,0c0,0.1,0,0.1,0.1,0.1l0,0l0,0c0.1,0.1,0.1,0.2,0.2,0.3l0,0c0,0,0,0,0,0.1c0,0,0,0.1,0.1,0.1l3.6,3.2
								c-2.1,1.6-6.7,5-9.9,7.6c-0.6,0.5-0.6,1.2-0.3,1.8c0.3,0.4,0.6,0.5,1,0.5c0.3,0,0.5-0.1,0.7-0.3c0.3-0.3,0.7-0.5,1.1-0.8
								c1.6-0.1,8.3-5.7,7.4,2.8h-1.6v-1.9c0-0.7-0.6-1.3-1.2-1.3s-1.2,0.6-1.2,1.3v1.9h-8.4l0.8-11.4l6.8-7.6
								c0.5-0.5,0.5-1.4-0.1-1.8c-0.5-0.5-1.3-0.5-1.7,0.1l-4.5,4.9l0.3-4.8c0.1-0.7-0.5-1.4-1.2-1.4c-0.6-0.1-1.3,0.5-1.4,1.2
								l-1.4,20.5h-4.6c-0.6,0-1.2,0.6-1.2,1.3v3.2h-2.6c-0.6,0-1.2,0.6-1.2,1.3c0,0.7,0.6,1.3,1.2,1.3h3.4c0.1,0.1,0.3,0.1,0.5,0.1
								h33.7c0.2,0,0.3-0.1,0.5-0.1h3.4c0.6,0,1.2-0.6,1.2-1.3C166.1-63.9,165.7-64.4,165.3-64.6z M131.1-128c0.1,0.3,0.1,0.6,0.1,1
								l0.4,4.2c0.1,1.2,0.1,2.5,0,3.9l-1.5,1.4l-0.3-10.1c0.3-0.1,0.5-0.1,0.8-0.2L131.1-128z M141.7-120.4v-3.7
								c0-0.5,0.2-0.9,0.5-1.2c0.1,1.9,2.4,1.7,2.6,5.7c-0.3,0.5-0.8,0.8-1.4,0.8C142.4-118.7,141.7-119.5,141.7-120.4z
								 M135.4-121.1h3.7c0.1,0,0.1,0,0.2,0v0.6c0,0.6,0.1,1.2,0.3,1.7h-2.3c-0.3,0-0.6-0.1-1-0.3l-1.9-1.3
								c-0.1-0.1-0.1-0.1-0.1-0.1l-0.1-1.8C134.3-121.6,134.8-121.1,135.4-121.1z M129.7-141.9c0.2,1.2,0.3,2.3,0.2,3.2h-1.2
								c0-0.2,0-0.4,0-0.5C128.7-140.2,129-141.2,129.7-141.9z M129.9-135.9c0.2,1.7,0.5,3.4,0.8,5.3c-0.3,0.1-0.6,0.1-0.8,0.3
								l-0.1-5.5L129.9-135.9L129.9-135.9z M128.5-66.5h6.7c1.6,0.7,4.1,1,5.2,1.9h-11.8V-66.5z"/>
							<path class="st0" d="M150-92.3v-7.9c0-0.7-0.6-1.3-1.2-1.3c-0.6,0-1.2,0.6-1.2,1.3v7.9c0,0.7,0.6,1.3,1.2,1.3
								C149.4-91,150-91.5,150-92.3z"/>
						</g>
					</g>
				</g>
			</g>
		</g>
		<rect x="122.2" y="-145" class="st1" width="290.7" height="83.1"/>
	</g>
</g>
<g>
	<g>
		<path class="st0" d="M195.1,209.5c-0.5,2.6-3,11.2-3.8,13.7h-38.4v-2.3c7.5-0.8,8.2-1.2,8.2-8.2v-32.8c0-7-0.8-7.4-7.4-8.1v-2.3
			h22.2v2.3c-6.6,0.6-7.5,1-7.5,8.1v33.7c0,5,0.6,6.2,5.4,6.3c0.1,0,6,0.1,6.5,0.1c4.2,0,5.4-0.5,7.4-2.6c2.1-2.1,3.8-5.4,5-8.5
			L195.1,209.5z"/>
		<path class="st0" d="M199.5,223.2v-2.3c5.2-0.5,5.8-0.9,5.8-6.5v-17.1c0-5.1-0.3-5.4-5.2-6.3v-2c4.3-0.8,8.2-1.8,11.8-3.3
			c0,3.5,0,7,0,10.4v18.2c0,5.6,0.6,6,5.9,6.5v2.3H199.5z M208.1,177.6c-2.3,0-4.4-2.1-4.4-4.4c0-2.6,2.1-4.5,4.5-4.5
			c2.3,0,4.2,1.9,4.2,4.5C212.4,175.5,210.5,177.6,208.1,177.6z"/>
		<path class="st0" d="M239.2,186.7c1.4-0.6,2.6-0.8,3.6-0.8c8.8,0,16.3,7.7,16.3,17.5c0,11.2-9.6,20.9-20.4,20.7
			c-3.6,0-8.2-0.8-12.7-3c0-2.1,0-4.4,0-6.6v-39.9c0-5.1-0.3-5.6-5.6-6v-2.1c3.9-0.5,9-1.7,12.1-2.8c0,3.2,0,6.5,0,9.8v16
			L239.2,186.7z M232.5,213.6c0,1.3,0.1,2.1,0.4,2.9c1,2.1,4.2,4.5,8.2,4.5c7.1,0,10.7-6.1,10.7-15.4c0-9.4-5.7-15-12.6-15
			c-2.4,0-5.1,0.8-6.7,1.6L232.5,213.6L232.5,213.6z"/>
		<path class="st0" d="M295.4,216.1c-5.3,6.6-11.1,8-13.7,8c-10.1,0-16.2-8.3-16.2-17.8c0-5.6,2-10.9,5.4-14.5c3.5-3.9,8-6,12.3-6
			c7.2,0,12.7,6.2,12.7,12.8c-0.1,1.7-0.3,2.4-1.7,2.7c-1.7,0.3-12.2,1.1-22.1,1.4c-0.3,11.1,6.5,15.6,12.4,15.6
			c3.4,0,6.5-1.4,9.6-4.2L295.4,216.1z M281.1,189c-3.8,0-7.5,3.6-8.7,10.3c4.7,0,9.2,0,14.1-0.3c1.5,0,2-0.4,2-1.7
			C288.6,193,285.7,189,281.1,189z"/>
		<path class="st0" d="M319.7,223.2h-19v-2.3c5.2-0.5,5.7-0.9,5.7-6.3v-17.2c0-5.4-0.3-5.7-5.1-6.3V189c4.1-0.6,7.8-1.7,11.6-3.4
			c0,2.7,0,6.4,0,9.1c2.9-4.3,6.4-8.8,10.5-8.8c3,0,4.8,1.9,4.8,3.9c0,1.9-1.3,3.7-2.8,4.5c-0.8,0.5-1.5,0.4-2.1-0.2
			c-1.2-1.2-2.3-2.1-3.7-2.1c-1.7,0-4.8,2.6-6.6,6.8v15.6c0,5.4,0.4,5.9,6.8,6.4V223.2z"/>
		<path class="st0" d="M373.1,169.4c5.9,0,10.6,1.1,14,3.6c3.2,2.4,5.4,6.3,5.4,11.8c0,12.1-10.3,16.9-18.2,16.9
			c-0.9,0-1.7-0.1-2.3-0.2l-5.7-1.5v12.9c0,7,0.6,7.1,8.2,7.9v2.3h-22.8v-2.3c7.1-0.8,7.4-1.2,7.4-8.1v-32.8c0-7.4-0.9-7.5-7.4-8.2
			v-2.3H373.1z M366.3,197.1c1,0.5,3.2,1.1,6,1.1c5.6,0,12.4-2.8,12.4-13.2c0-9.1-5.9-12.7-12.9-12.7c-2.4,0-4.1,0.4-4.7,1
			c-0.6,0.6-0.9,1.6-0.9,3.8L366.3,197.1L366.3,197.1z"/>
		<path class="st0" d="M417.4,223.2h-19v-2.3c5.2-0.5,5.7-0.9,5.7-6.3v-17.2c0-5.4-0.3-5.7-5.1-6.3V189c4.1-0.6,7.8-1.7,11.6-3.4
			c0,2.7,0,6.4,0,9.1c2.9-4.3,6.4-8.8,10.5-8.8c3,0,4.8,1.9,4.8,3.9c0,1.9-1.3,3.7-2.8,4.5c-0.8,0.5-1.5,0.4-2.1-0.2
			c-1.2-1.2-2.3-2.1-3.7-2.1c-1.7,0-4.8,2.6-6.6,6.8v15.6c0,5.4,0.4,5.9,6.8,6.4L417.4,223.2L417.4,223.2z"/>
		<path class="st0" d="M459.4,216.1c-5.3,6.6-11.1,8-13.7,8c-10.1,0-16.2-8.3-16.2-17.8c0-5.6,2-10.9,5.4-14.5c3.5-3.9,8-6,12.3-6
			c7.2,0,12.7,6.2,12.7,12.8c-0.1,1.7-0.3,2.4-1.7,2.7c-1.7,0.3-12.2,1.1-22.1,1.4c-0.3,11.1,6.5,15.6,12.4,15.6
			c3.4,0,6.5-1.4,9.6-4.2L459.4,216.1z M445.2,189c-3.8,0-7.5,3.6-8.7,10.3c4.7,0,9.2,0,14.1-0.3c1.5,0,2-0.4,2-1.7
			C452.8,193,449.9,189,445.2,189z"/>
		<path class="st0" d="M486.4,196.7c-1.5-4.8-3.6-8.1-8.7-8.1c-2.9,0-5.1,2.1-5.1,5.4c0,3.6,2.4,5.2,7,7.4
			c7.1,3.4,10.7,5.9,10.7,11.3c0,7.6-7,11.5-13.5,11.5c-4.3,0-8.1-1.3-9.8-2.3c-0.4-2.4-1.2-7-1.5-9.7l2.4-0.4
			c1.5,5.3,4.4,9.6,10.1,9.6c3.2,0,5.8-2.1,5.8-5.6c0-3.7-2.3-5.6-6.6-7.8c-5.8-2.8-10.5-5.4-10.5-11.4c0-6,5.1-10.7,12.9-10.7
			c3.5,0,6.3,0.8,7.9,1.1c0.3,2,0.8,7.2,1.2,9.2L486.4,196.7z"/>
		<path class="st0" d="M517.2,196.7c-1.5-4.8-3.6-8.1-8.7-8.1c-2.9,0-5.1,2.1-5.1,5.4c0,3.6,2.4,5.2,7,7.4
			c7.1,3.4,10.7,5.9,10.7,11.3c0,7.6-7,11.5-13.5,11.5c-4.3,0-8.1-1.3-9.8-2.3c-0.4-2.4-1.2-7-1.5-9.7l2.4-0.4
			c1.5,5.3,4.4,9.6,10.1,9.6c3.2,0,5.8-2.1,5.8-5.6c0-3.7-2.3-5.6-6.6-7.8c-5.8-2.8-10.5-5.4-10.5-11.4c0-6,5.1-10.7,12.9-10.7
			c3.5,0,6.3,0.8,7.9,1.1c0.3,2,0.8,7.2,1.2,9.2L517.2,196.7z"/>
	</g>
</g>
<path class="st0" d="M528.2,257.6H145.8c-1.4,0-2.6,1.2-2.6,2.6v1.3c0,1.4,1.2,2.6,2.6,2.6h382.4c1.4,0,2.6-1.2,2.6-2.6v-1.3
	C530.8,258.8,529.6,257.6,528.2,257.6z"/>
<path class="st2" d="M414.6,145.3H259.4c-1.7,0-3.2-1.4-3.2-3.2v-13c0-1.7,1.4-3.2,3.2-3.2h155.1c1.7,0,3.2,1.4,3.2,3.2v13
	C417.8,143.8,416.3,145.3,414.6,145.3z"/>
<path class="st3" d="M346.5,125.2h-19c-1.9,0-3.4-1.6-3.4-3.4V90.5c0-1.9,1.6-3.4,3.4-3.4h19c1.9,0,3.4,1.6,3.4,3.4v31.3
	C349.9,123.7,348.4,125.2,346.5,125.2z"/>
</svg>
