<?xml version="1.0" encoding="utf-8"?>
<!-- Generator: Adobe Illustrator 24.1.2, SVG Export Plug-In . SVG Version: 6.00 Build 0)  -->
<svg version="1.1" id="icon-0" xmlns:svgjs="http://svgjs.dev/svgjs"
	 xmlns="http://www.w3.org/2000/svg" xmlns:xlink="http://www.w3.org/1999/xlink" x="0px" y="0px" viewBox="0 0 128 128"
	 style="enable-background:new 0 0 128 128;" xml:space="preserve">
<style type="text/css">
	.st0{fill:#F0CF90;}
	.st1{display:none;fill:none;}
	.st2{opacity:0.36;}
</style>
<g transform="matrix(0.4497816593886463,0,0,0.4497816593886463,35.285169457795014,12.760752631578946)">
	<g id="tight-bounds" transform="matrix(1,0,0,1,-0.06554169518037156,-0.24049999999999727)">
		<g>
			<g>
				<g>
					<g>
						<g>
							<g>
								<g>
									<g>
										<path class="st0" d="M36.5,145c0.1,0,0.2,0,0.3,0c1.9,0,3.5-1.4,3.6-3.3l0.3-4.1c0.1-2-1.4-3.7-3.3-3.9
											c-2-0.1-3.7,1.4-3.9,3.3l-0.3,4.1C33,143.2,34.5,144.9,36.5,145z"/>
										<path class="st0" d="M125.6,222l-9.8-11.2c-0.1-0.1-0.2-0.2-0.3-0.4l-0.2-0.3h0c-0.6-0.5-1.4-0.8-2.3-0.8H95.6l-2.7-39.1
											l-0.5-9.6l3.8-1.1c1.7-0.5,2.7-2.1,2.6-3.9l-2.4-21.7c1.3-8.6,6-16.6,5.5-24.3l8.6,9.3l-7.4,7.6c-1.4,1.4-1.4,3.7,0,5.1
											c1.4,1.4,3.7,1.4,5.1,0l9.8-10c1.4-1.4,1.4-3.6,0-5l-13.5-14.5c-0.6-0.7-1.5-1.1-2.5-1.2c-0.9,0-1.9,0.3-2.6,0.9l-6.2,5.7
											l-1.1-9.9C91,86,83,76.2,72.1,72.7c0.9-1.7,1.4-3.6,1.4-5.7v-1.8h7.6c2,0,3.6-1.6,3.6-3.6S83.1,58,81.1,58h-7.6v-0.9
											c0-0.7,0-1.4-0.2-2.1l8.3-8.3c1.4-1.4,1.4-3.7,0-5.1c-1.4-1.4-3.7-1.4-5.1,0l-6.8,6.8c-1.3-1.2-2.9-2.2-4.6-2.7v-10
											c0-2-1.6-3.6-3.6-3.6c-2,0-3.6,1.6-3.6,3.6v10c-1.6,0.5-3.1,1.4-4.3,2.5L47,41.6c-1.4-1.4-3.7-1.4-5.1,0
											c-1.4,1.4-1.4,3.7,0,5.1l7.9,7.9c-0.2,0.8-0.3,1.6-0.3,2.5v1c-0.2,0-0.3,0-0.5,0H38.3c-2,0-3.6,1.6-3.6,3.6l-3.6-37.3h0.9
											c2,0,3.6-1.6,3.6-3.6c0-1.6-1.1-3-2.5-3.4c0.1-0.7,0.1-1.4,0.1-2.1c0-6.4-3.5-12.5-9-15.7c-1.1-0.6-2.5-0.6-3.6,0
											c-5.6,3.2-9,9.2-9,15.7c0,0.7,0,1.4,0.1,2.1c-1.4,0.5-2.5,1.8-2.5,3.4c0,2,1.6,3.6,3.6,3.6h1.7l1.6,56.9l-0.5,0.4
											c-1.1,0.9-1.5,2.5-1,3.8c5.3,16.4,9.6,22.4,20.6,27.5l-0.9,13.2c-0.1,2,1.4,3.7,3.3,3.9c0.1,0,0.2,0,0.3,0
											c1.9,0,3.5-1.4,3.6-3.3l1.2-15.8c0.1-1.5-0.8-3-2.2-3.6c-9.6-4.1-13.2-7.5-18.2-21.9l9.6-8.4l0.4-0.3
											c-2.8,18.7,20,10.7,15.3,18.5l-4,5c-1.2,1.6-0.9,3.8,0.6,5c0.7,0.5,1.4,0.8,2.3,0.8c1.1,0,2.1-0.5,2.8-1.4l14.4-18.2
											l-0.8,15.8c-0.1,2,1.4,3.7,3.4,3.8c0,0,0.1,0,0.1,0l0,0h0c0.1,0,0.1,0,0.2,0c1.8,0,3.4-1.5,3.5-3.4l1-21.6
											c2.8,18.7,22.5,29.9,10.4,75.3l-14.3,4.3l2-40.7l0.2-4.3c0.6-1.4,0.3-3-0.9-4c-0.7-0.6-1.5-0.9-2.4-1c0,0-0.1,0-0.1,0
											c-1.5-0.1-2.8,0.8-3.4,2l-10.6,11.3c-1.3,1.4-1.3,3.4-0.1,4.8l-0.1,0.1c0.1,0,0.1,0,0.2,0c0,0,0.1,0.1,0.1,0.1
											c0.7,0.6,1.6,1,2.5,1c0.2,0,0.4,0,0.6,0c4.5,2.7,5.7,10.4,5.1,20.7l0.1-0.8l-0.8,15.5v0c0,0.1,0,0.2,0,0.3c0,0,0,0,0,0.1
											l0,0c0,0.1,0,0.3,0,0.4c0,0,0,0,0,0c0,0,0,0,0,0.1c0,0.1,0,0.2,0.1,0.3v0c0,0,0,0,0,0.1c0,0.1,0,0.2,0.1,0.3
											c0,0,0,0,0,0.1c0,0,0,0,0,0c0,0.1,0.1,0.2,0.1,0.3c0,0,0,0,0,0l0,0c0.1,0.2,0.3,0.5,0.5,0.6c0,0,0,0,0,0c0,0,0,0,0.1,0.1
											c0,0,0.1,0.1,0.1,0.1l10.4,8.9c-6.3,4.5-19.4,13.9-29.1,20.9c-1.6,1.2-2,3.4-0.8,5c0.7,1,1.8,1.5,2.9,1.5
											c0.7,0,1.5-0.2,2.1-0.7c1-0.7,2.1-1.5,3.2-2.3c4.8-0.4,24.3-16,21.8,7.8H67v-5.4c0-2-1.6-3.6-3.6-3.6
											c-2,0-3.6,1.6-3.6,3.6v5.4H35.4l2.3-31.6l19.1-20.3c1.4-1.4,1.3-3.7-0.2-5.1c-1.4-1.4-3.7-1.3-5.1,0.2l-13,13.7l1-13.5
											c0.1-2-1.4-3.7-3.3-3.9c-2-0.1-3.7,1.4-3.9,3.3l-4.2,57H14.8c-2,0-3.6,1.6-3.6,3.6v8.8H3.5c-2,0-3.6,1.6-3.6,3.6
											s1.6,3.6,3.6,3.6h10c0.4,0.2,0.9,0.3,1.4,0.3H113c0.5,0,0.9-0.1,1.4-0.3h10c2,0,3.6-1.6,3.6-3.6
											C127.9,223.8,127,222.5,125.6,222z M25.9,46.1c0.1,0.9,0.3,1.8,0.4,2.8l1.1,11.6c0.2,3.4,0.2,7,0.1,10.8l-4.3,3.8L22.3,47
											c0.7-0.2,1.6-0.4,2.4-0.6L25.9,46.1z M56.8,67.1v-10c0-1.3,0.5-2.5,1.4-3.3c0.3,5.3,7.1,4.9,7.5,15.7
											c-0.8,1.4-2.3,2.3-4.1,2.3C59,71.8,56.8,69.7,56.8,67.1z M38.3,65.3h10.8c0.2,0,0.4,0,0.5,0v1.8c0,1.7,0.4,3.3,1,4.7h-6.6
											c-1,0-1.9-0.3-2.7-0.8l-5.7-3.5c-0.1-0.1-0.2-0.1-0.4-0.2l-0.5-5C35.2,64,36.6,65.3,38.3,65.3z M21.8,7.7
											c0.6,3.3,0.9,6.3,0.5,8.9h-3.4c0-0.5-0.1-1-0.1-1.4C18.8,12.4,19.9,9.7,21.8,7.7z M22.3,24.3c0.6,4.6,1.5,9.5,2.4,14.7
											c-0.9,0.2-1.7,0.4-2.5,0.6l-0.5-15.3C21.7,24.3,22.3,24.3,22.3,24.3z M18.4,216.6h19.4c4.5,2,11.8,2.7,15.1,5.1H18.4
											V216.6z"/>
										<path class="st0" d="M80.9,145.1V123c0-2-1.6-3.6-3.6-3.6s-3.6,1.6-3.6,3.6v22.1c0,2,1.6,3.6,3.6,3.6
											S80.9,147.1,80.9,145.1z"/>
									</g>
								</g>
							</g>
						</g>
					</g>
				</g>
			</g>
		</g>
		<rect x="-0.1" y="-0.9" class="st1" width="128.1" height="230.2"/>
	</g>
</g>
<g class="st2">
	<g>
		<g>
			<g>
				<g>
					<g>
						<g>
							<g>
								<path class="st0" d="M51.7,79.3c0,0,0.1,0,0.1,0c0.9,0,1.6-0.6,1.6-1.5l0.1-1.8c0.1-0.9-0.6-1.7-1.5-1.7
									c-0.9-0.1-1.7,0.6-1.7,1.5l-0.1,1.8C50.1,78.4,50.8,79.2,51.7,79.3z"/>
								<path class="st0" d="M91.8,113.9l-4.4-5c0-0.1-0.1-0.1-0.1-0.2l-0.1-0.1h0c-0.3-0.2-0.6-0.4-1-0.4h-7.8L77,90.6l-0.2-4.3
									l1.7-0.5c0.7-0.2,1.2-1,1.2-1.7l-1.1-9.8c0.6-3.9,2.7-7.4,2.5-11l3.9,4.2l-3.3,3.4c-0.6,0.6-0.6,1.7,0,2.3
									c0.6,0.6,1.7,0.6,2.3,0l4.4-4.5c0.6-0.6,0.6-1.6,0-2.2l-6.1-6.5c-0.3-0.3-0.7-0.5-1.1-0.5c-0.4,0-0.9,0.1-1.2,0.4l-2.8,2.6
									L76.7,58c-0.5-5.2-4.1-9.6-9-11.2c0.4-0.8,0.6-1.6,0.6-2.6v-0.8h3.4c0.9,0,1.6-0.7,1.6-1.6c0-0.9-0.7-1.6-1.6-1.6h-3.4v-0.4
									c0-0.3,0-0.6-0.1-0.9L72,35c0.6-0.6,0.6-1.7,0-2.3c-0.6-0.6-1.7-0.6-2.3,0l-3.1,3.1c-0.6-0.5-1.3-1-2.1-1.2v-4.5
									c0-0.9-0.7-1.6-1.6-1.6s-1.6,0.7-1.6,1.6v4.5c-0.7,0.2-1.4,0.6-1.9,1.1l-3-3c-0.6-0.6-1.7-0.6-2.3,0c-0.6,0.6-0.6,1.7,0,2.3
									l3.6,3.6c-0.1,0.4-0.1,0.7-0.1,1.1v0.5c-0.1,0-0.1,0-0.2,0h-4.9c-0.9,0-1.6,0.7-1.6,1.6L49.3,25h0.4c0.9,0,1.6-0.7,1.6-1.6
									c0-0.7-0.5-1.3-1.1-1.5c0-0.3,0.1-0.6,0.1-0.9c0-2.9-1.6-5.6-4.1-7c-0.5-0.3-1.1-0.3-1.6,0c-2.5,1.5-4.1,4.1-4.1,7
									c0,0.3,0,0.6,0.1,0.9c-0.6,0.2-1.1,0.8-1.1,1.5c0,0.9,0.7,1.6,1.6,1.6h0.8l0.7,25.6l-0.2,0.2c-0.5,0.4-0.7,1.1-0.5,1.7
									c2.4,7.4,4.3,10.1,9.3,12.4l-0.4,6c-0.1,0.9,0.6,1.7,1.5,1.7c0,0,0.1,0,0.1,0c0.9,0,1.6-0.6,1.6-1.5l0.5-7.1
									c0-0.7-0.3-1.3-1-1.6c-4.3-1.8-6-3.4-8.2-9.9l4.3-3.8l0.2-0.1c-1.3,8.4,9,4.8,6.9,8.3l-1.8,2.3c-0.5,0.7-0.4,1.7,0.3,2.3
									c0.3,0.2,0.6,0.3,1,0.3c0.5,0,1-0.2,1.3-0.6l6.5-8.2l-0.4,7.1c0,0.9,0.6,1.7,1.5,1.7c0,0,0,0,0,0l0,0h0c0,0,0.1,0,0.1,0
									c0.8,0,1.5-0.7,1.6-1.5l0.5-9.7c1.3,8.4,10.1,13.5,4.7,33.9l-6.4,1.9L66.4,68l0.1-1.9c0.3-0.6,0.1-1.3-0.4-1.8
									c-0.3-0.3-0.7-0.4-1.1-0.4c0,0,0,0-0.1,0c-0.7,0-1.3,0.3-1.5,0.9l-4.8,5.1c-0.6,0.6-0.6,1.5,0,2.2l-0.1,0c0,0,0.1,0,0.1,0
									c0,0,0,0,0.1,0.1c0.3,0.3,0.7,0.4,1.1,0.4c0.1,0,0.2,0,0.3,0c2,1.2,2.6,4.7,2.3,9.3l0.1-0.3l-0.3,7v0c0,0,0,0.1,0,0.1
									c0,0,0,0,0,0l0,0c0,0.1,0,0.1,0,0.2c0,0,0,0,0,0s0,0,0,0c0,0,0,0.1,0,0.1v0c0,0,0,0,0,0c0,0,0,0.1,0,0.1c0,0,0,0,0,0
									c0,0,0,0,0,0c0,0,0,0.1,0.1,0.1c0,0,0,0,0,0l0,0c0.1,0.1,0.1,0.2,0.2,0.3c0,0,0,0,0,0c0,0,0,0,0,0s0,0,0.1,0.1l4.7,4
									c-2.8,2-8.7,6.2-13.1,9.4c-0.7,0.5-0.9,1.5-0.4,2.3c0.3,0.4,0.8,0.7,1.3,0.7c0.3,0,0.7-0.1,1-0.3c0.5-0.3,0.9-0.7,1.4-1
									c2.1-0.2,10.9-7.2,9.8,3.5h-2.1v-2.4c0-0.9-0.7-1.6-1.6-1.6s-1.6,0.7-1.6,1.6v2.4h-11l1-14.2l8.6-9.1
									c0.6-0.6,0.6-1.7-0.1-2.3c-0.6-0.6-1.7-0.6-2.3,0.1l-5.8,6.2l0.4-6.1c0.1-0.9-0.6-1.7-1.5-1.7c-0.9-0.1-1.7,0.6-1.7,1.5
									l-1.9,25.6h-6c-0.9,0-1.6,0.7-1.6,1.6v3.9h-3.5c-0.9,0-1.6,0.7-1.6,1.6s0.7,1.6,1.6,1.6h4.5c0.2,0.1,0.4,0.1,0.6,0.1h44.2
									c0.2,0,0.4,0,0.6-0.1h4.5c0.9,0,1.6-0.7,1.6-1.6C92.8,114.7,92.4,114.1,91.8,113.9z M46.9,34.8c0.1,0.4,0.1,0.8,0.2,1.3
									l0.5,5.2c0.1,1.5,0.1,3.2,0,4.9l-1.9,1.7l-0.4-12.6c0.3-0.1,0.7-0.2,1.1-0.3L46.9,34.8z M60.8,44.2v-4.5
									c0-0.6,0.2-1.1,0.6-1.5c0.1,2.4,3.2,2.2,3.4,7.1c-0.4,0.6-1.1,1.1-1.8,1.1C61.8,46.3,60.8,45.4,60.8,44.2z M52.5,43.4h4.9
									c0.1,0,0.2,0,0.2,0v0.8c0,0.7,0.2,1.5,0.4,2.1h-3c-0.4,0-0.9-0.1-1.2-0.3l-2.6-1.6c-0.1,0-0.1-0.1-0.2-0.1l-0.2-2.2
									C51.1,42.8,51.7,43.4,52.5,43.4z M45.1,17.5c0.3,1.5,0.4,2.9,0.2,4h-1.5c0-0.2,0-0.4,0-0.6C43.7,19.6,44.2,18.4,45.1,17.5z
									 M45.3,25c0.3,2.1,0.7,4.3,1.1,6.6c-0.4,0.1-0.8,0.2-1.1,0.3L45,25C45,25,45.3,25,45.3,25z M43.5,111.5h8.7
									c2,0.9,5.3,1.2,6.8,2.3H43.5V111.5z"/>
								<path class="st0" d="M71.7,79.3v-10c0-0.9-0.7-1.6-1.6-1.6s-1.6,0.7-1.6,1.6v10c0,0.9,0.7,1.6,1.6,1.6S71.7,80.2,71.7,79.3z
									"/>
							</g>
						</g>
					</g>
				</g>
			</g>
		</g>
	</g>
</g>
</svg>
